<svg width="175" height="54" viewBox="0 0 175 54" fill="none" xmlns="http://www.w3.org/2000/svg">
<path d="M7.92614 10.2727V43H3.96307V10.2727H7.92614ZM19.1322 28.2344V43H15.3609V18.4545H19.0044V22.2898H19.324C19.8992 21.0433 20.7728 20.0419 21.9447 19.2855C23.1166 18.5185 24.6294 18.1349 26.483 18.1349C28.145 18.1349 29.5992 18.4759 30.8456 19.1577C32.0921 19.8288 33.0615 20.8516 33.754 22.2259C34.4465 23.5895 34.7927 25.3153 34.7927 27.4034V43H31.0214V27.6591C31.0214 25.7308 30.5207 24.2287 29.5193 23.1527C28.5178 22.0661 27.1436 21.5227 25.3964 21.5227C24.1926 21.5227 23.1166 21.7837 22.1684 22.3058C21.2309 22.8278 20.4905 23.5895 19.9472 24.5909C19.4039 25.5923 19.1322 26.8068 19.1322 28.2344ZM45.008 10.2727V13.1491C45.008 14.0227 44.8482 14.9549 44.5286 15.9457C44.2196 16.9258 43.7615 17.8793 43.1543 18.8061C42.5577 19.7223 41.8333 20.5213 40.981 21.2031L38.9355 19.5412C39.6067 18.5824 40.1873 17.5863 40.6774 16.5529C41.1781 15.5089 41.4284 14.3956 41.4284 13.2131V10.2727H45.008ZM71.0835 20.8516C70.8598 20.0739 70.5455 19.3867 70.1407 18.7901C69.7359 18.1829 69.2405 17.6715 68.6546 17.256C68.0793 16.8299 67.4188 16.505 66.673 16.2812C65.9379 16.0575 65.123 15.9457 64.2281 15.9457C62.5555 15.9457 61.0853 16.3612 59.8176 17.1921C58.5605 18.0231 57.5803 19.2322 56.8772 20.8196C56.1741 22.3963 55.8225 24.3246 55.8225 26.6044C55.8225 28.8842 56.1688 30.8232 56.8612 32.4212C57.5537 34.0192 58.5338 35.239 59.8016 36.0806C61.0693 36.9116 62.5661 37.3271 64.292 37.3271C65.858 37.3271 67.195 37.0501 68.303 36.4961C69.4216 35.9315 70.2739 35.1378 70.8598 34.1151C71.4564 33.0923 71.7547 31.8832 71.7547 30.4876L73.161 30.6953H64.7235V25.4858H78.4184V29.6087C78.4184 32.4851 77.8112 34.9567 76.5967 37.0234C75.3822 39.0795 73.7096 40.6669 71.5789 41.7855C69.4482 42.8935 67.0086 43.4474 64.26 43.4474C61.1919 43.4474 58.4965 42.771 56.1741 41.418C53.8517 40.0543 52.0406 38.1207 50.7409 35.6172C49.4518 33.103 48.8073 30.12 48.8073 26.6683C48.8073 24.0156 49.1908 21.6506 49.9578 19.5732C50.7355 17.4851 51.8222 15.7166 53.2178 14.2678C54.6134 12.8189 56.238 11.7163 58.0917 10.9599C59.9454 10.2035 61.9536 9.82528 64.1162 9.82528C65.9699 9.82528 67.6958 10.0969 69.2938 10.6403C70.8918 11.1729 72.3087 11.9293 73.5445 12.9094C74.7909 13.8896 75.8083 15.0561 76.5967 16.4091C77.385 17.7514 77.8911 19.2322 78.1148 20.8516H71.0835ZM90.4874 43.4634C88.9213 43.4634 87.5257 43.1918 86.3006 42.6484C85.0755 42.0945 84.106 41.2795 83.3922 40.2035C82.6891 39.1168 82.3375 37.7638 82.3375 36.1445C82.3375 34.7809 82.5879 33.6357 83.0886 32.7088C83.5893 31.782 84.2711 31.0362 85.1341 30.4716C85.997 29.907 86.9771 29.4808 88.0744 29.1932C89.1824 28.9055 90.3436 28.7031 91.5581 28.5859C92.9856 28.4368 94.1362 28.2983 95.0098 28.1705C95.8833 28.032 96.5172 27.8295 96.9114 27.5632C97.3056 27.2969 97.5027 26.9027 97.5027 26.3807V26.2848C97.5027 25.2727 97.1831 24.4897 96.5439 23.9357C95.9153 23.3817 95.0204 23.1048 93.8592 23.1048C92.6341 23.1048 91.6593 23.3764 90.9348 23.9197C90.2104 24.4524 89.731 25.1236 89.4966 25.9332L83.2005 25.4219C83.5201 23.9304 84.1486 22.6413 85.0861 21.5547C86.0236 20.4574 87.2328 19.6158 88.7136 19.0298C90.2051 18.4332 91.9309 18.1349 93.8912 18.1349C95.2548 18.1349 96.5598 18.2947 97.8063 18.6143C99.0634 18.9339 100.177 19.4293 101.146 20.1005C102.126 20.7717 102.899 21.6346 103.463 22.6893C104.028 23.7333 104.31 24.9851 104.31 26.4446V43H97.8542V39.5962H97.6625C97.2683 40.3633 96.7409 41.0398 96.0804 41.6257C95.4199 42.201 94.6262 42.6538 93.6994 42.984C92.7726 43.3036 91.7019 43.4634 90.4874 43.4634ZM92.437 38.7653C93.4384 38.7653 94.3226 38.5682 95.0897 38.174C95.8567 37.7692 96.4586 37.2259 96.8954 36.544C97.3322 35.8622 97.5506 35.0898 97.5506 34.2269V31.6222C97.3375 31.7607 97.0446 31.8885 96.6717 32.0057C96.3095 32.1122 95.8993 32.2134 95.4412 32.3093C94.9831 32.3945 94.525 32.4744 94.0669 32.549C93.6088 32.6129 93.1934 32.6715 92.8205 32.7248C92.0215 32.842 91.3237 33.0284 90.7271 33.2841C90.1305 33.5398 89.6671 33.886 89.3368 34.3228C89.0066 34.7489 88.8414 35.2816 88.8414 35.9208C88.8414 36.8477 89.177 37.5561 89.8482 38.0462C90.53 38.5256 91.3929 38.7653 92.437 38.7653ZM109.592 43V18.4545H116.08V22.7852H116.367C116.879 21.3469 117.731 20.2124 118.924 19.3814C120.117 18.5504 121.545 18.1349 123.207 18.1349C124.89 18.1349 126.323 18.5558 127.505 19.3974C128.688 20.2283 129.476 21.3576 129.87 22.7852H130.126C130.627 21.3789 131.532 20.255 132.843 19.4134C134.164 18.5611 135.724 18.1349 137.525 18.1349C139.815 18.1349 141.674 18.8647 143.102 20.3242C144.54 21.7731 145.259 23.8292 145.259 26.4925V43H138.468V27.8349C138.468 26.4712 138.105 25.4485 137.381 24.7667C136.657 24.0849 135.751 23.744 134.664 23.744C133.429 23.744 132.464 24.1381 131.772 24.9265C131.08 25.7042 130.733 26.7322 130.733 28.0107V43H124.134V27.6911C124.134 26.4872 123.787 25.5284 123.095 24.8146C122.413 24.1009 121.513 23.744 120.394 23.744C119.638 23.744 118.956 23.9357 118.349 24.3192C117.752 24.6921 117.278 25.2195 116.926 25.9013C116.575 26.5724 116.399 27.3608 116.399 28.2663V43H109.592ZM161.823 43.4794C159.298 43.4794 157.124 42.968 155.303 41.9453C153.492 40.9119 152.096 39.4524 151.116 37.5668C150.136 35.6705 149.646 33.4279 149.646 30.8391C149.646 28.3143 150.136 26.0984 151.116 24.1914C152.096 22.2844 153.476 20.7983 155.255 19.733C157.045 18.6676 159.143 18.1349 161.551 18.1349C163.17 18.1349 164.678 18.396 166.073 18.918C167.48 19.4293 168.705 20.2017 169.749 21.2351C170.803 22.2685 171.624 23.5682 172.21 25.1342C172.796 26.6896 173.089 28.5114 173.089 30.5994V32.4691H152.362V28.2504H166.681C166.681 27.2702 166.468 26.402 166.041 25.6456C165.615 24.8892 165.024 24.2979 164.268 23.8718C163.522 23.435 162.654 23.2166 161.663 23.2166C160.629 23.2166 159.713 23.4563 158.914 23.9357C158.126 24.4045 157.508 25.0384 157.061 25.8374C156.613 26.6257 156.384 27.5046 156.373 28.4741V32.4851C156.373 33.6996 156.597 34.7489 157.045 35.6332C157.503 36.5174 158.147 37.1992 158.978 37.6786C159.809 38.158 160.795 38.3977 161.934 38.3977C162.691 38.3977 163.383 38.2912 164.012 38.0781C164.64 37.8651 165.178 37.5455 165.626 37.1193C166.073 36.6932 166.414 36.1712 166.649 35.5533L172.945 35.9688C172.625 37.4815 171.97 38.8026 170.979 39.9318C169.999 41.0504 168.731 41.924 167.176 42.5526C165.631 43.1705 163.847 43.4794 161.823 43.4794Z" fill="white"/>
</svg>
